<svg xmlns="http://www.w3.org/2000/svg" viewBox="0 0 497.7353 471.34452"><g id="OBJECTS"><path d="M485.19,107.05,340,23.21a28.49407,28.49407,0,0,0-28.52,0L166.28,107.05h-.03L58.03,169.53c-7.9,4.58-10.79,14.4-6.44,21.93,4.37,7.56,14.3,9.99,22.23,5.4l78.22-45.13v36.69L10.16,270.31c-7.9,4.59-10.79,14.4-6.44,21.93C8.09,299.81,18.02,302.23,25.95,297.65l126.09-72.78v36.45L82.42,301.51c-7.93,4.55-10.78,14.36-6.44,21.93,4.37,7.53,14.31,9.96,22.2,5.4l53.86-31.07v1.64a28.29191,28.29191,0,0,0,14.24,24.66l1.63995.98L34.12,402.29c-7.89,4.56-10.78,14.37-6.44,21.93,4.38,7.53,14.31,9.96,22.24,5.41l149.56-86.39,31.56,18.23-66.12,38.18c-7.9,4.55-10.79,14.39-6.41,21.93,4.34,7.56,14.3,9.96,22.2,5.4l81.89-47.29,31.56,18.23-78.21,45.16c-7.9,4.56-10.79,14.37-6.41,21.93,4.34,7.57,14.30005,9.97,22.2,5.41l150.6-86.96L485.19,324.07a28.44932,28.44932,0,0,0,14.24-24.66V131.74A28.4108,28.4108,0,0,0,485.19,107.05ZM459.07,277.54a28.16961,28.16961,0,0,1-14.13,24.42L338.81,363.23a28.16907,28.16907,0,0,1-28.19,0L204.5,301.96a28.1416,28.1416,0,0,1-14.1-24.42V154.98a28.12961,28.12961,0,0,1,14.1-24.42L310.62,69.29a28.16907,28.16907,0,0,1,28.19,0l106.13,61.27a28.15759,28.15759,0,0,1,14.13,24.42Z" transform="translate(-1.69469 -19.38498)" fill="#fff"/><path d="M37.059,217.839a15.675,15.675,0,1,0-21.41516-5.74145A15.67762,15.67762,0,0,0,37.059,217.839Z" transform="translate(-1.69469 -19.38498)" fill="#fff"/><path d="M63.88333,348.516a15.67645,15.67645,0,1,0-21.41516-5.74145A15.6807,15.6807,0,0,0,63.88333,348.516Z" transform="translate(-1.69469 -19.38498)" fill="#fff"/><path d="M125.37441,422.59893a15.6744,15.6744,0,1,0,21.4182,5.73082A15.67113,15.67113,0,0,0,125.37441,422.59893Z" transform="translate(-1.69469 -19.38498)" fill="#fff"/><path d="M452.23,155.98V278.12a21.74036,21.74036,0,0,1-10.84,18.86L368.76,338.9c44.81-167.4,3.92-14.73,49.12-183.44-13.55-3.61-41.58,76.09-43.35,82.84-4.55,17.8,7.78,22.63,2.77,37.57l-24.15,72.02L335.59,358a19.36427,19.36427,0,0,1-2.7,1.34L328.67,244.4c-.18-5.47,2.55-10.42,6.86005-12.48,9.18-4.38,15.46-14.16,15.46-30.44,0-23.08-12.63-50.51-28.28-50.51-15.61,0-28.28,27.43-28.28,50.51,0,16.28,6.29,26.06,15.5,30.44,4.28,2.06,7.04,7.01,6.83,12.48l-4.1,112.93L292.34,345.64l-26.76-88.51c-1.79-6.08-7.44-24.64-5.47-29.59a23.56153,23.56153,0,0,0,5.26-14.73,23.25258,23.25258,0,0,0-.79-5.92c-.03-.06-.03-.15-.09-.21l-14.98-51c-.52-1.8-1.94-2.98-3.19-2.62h-.06c-1.31.34-1.94,2.13-1.43,4.04l13.34,49.88c.39,1.37-.06,2.7-1.04,2.92a.59348.59348,0,0,1-.33.06c-.85,0-1.7-.85-2.06-2.07L241.4,158.02c-.52-1.89-1.97-3.13-3.22-2.8a2.59582,2.59582,0,0,0-1.61,2.7,5.09516,5.09516,0,0,0,.18,1.31l13.34,49.88c.38995,1.39-.06,2.73-1.03,2.97a1.2302,1.2302,0,0,1-.34.03c-.85,0-1.7-.82-2.06-2.06l-13.34-49.88c-.52-1.88-1.97-3.13-3.22-2.76a2.58759,2.58759,0,0,0-1.61,2.7,4.87626,4.87626,0,0,0,.18,1.28l13.34,49.9c.39,1.4-.06,2.71-1.03,2.95a.64643.64643,0,0,1-.34.06c-.82,0-1.7-.85-2.06-2.1l-13.34-49.87c-.52-1.88-1.97-3.1-3.22-2.77h-.09c-1.24.37-1.91,2.07-1.43,3.89l12.49,51.64c0,.12.03.18.03.27a23.22273,23.22273,0,0,0,14.18,15.65c2.1,1.63995,4.22,7.16,6.05,13.09,1.85,5.89,3.28,12.15,4.01,15.22l17.86,76.36-67.04-38.7a21.83147,21.83147,0,0,1-10.87-18.86V155.98a21.81933,21.81933,0,0,1,10.87-18.86L313.84,76.09a21.7755,21.7755,0,0,1,21.75,0l105.8,61.03A21.72835,21.72835,0,0,1,452.23,155.98Z" transform="translate(-1.69469 -19.38498)" fill="#fff"/></g><g id="DESIGNED_BY_FREEPIK" data-name="DESIGNED BY FREEPIK"><path d="M178.6221,478.9248a.72256.72256,0,0,0-.5928.2578,1.30621,1.30621,0,0,0-.1992.7832v2.4824a3.54414,3.54414,0,0,0-.9746-.7724,2.7545,2.7545,0,0,0-1.2227-.2481,2.58428,2.58428,0,0,0-2.0254.878,3.65222,3.65222,0,0,0-.7636,2.455,4.9433,4.9433,0,0,0,.1914,1.3838,3.26729,3.26729,0,0,0,.5722,1.1172,2.60442,2.60442,0,0,0,.8897.7266,2.38924,2.38924,0,0,0,1.1074.2578,2.58524,2.58524,0,0,0,.8398-.1338,2.29437,2.29437,0,0,0,.7159-.3623,4.475,4.475,0,0,0,.6699-.6309v.1622a1.0854,1.0854,0,0,0,.2187.7167.75989.75989,0,0,0,.5733.2481.78438.78438,0,0,0,.5732-.2393,1.06439,1.06439,0,0,0,.2188-.7255v-7.4014a1.04844,1.04844,0,0,0-.209-.7158A.70769.70769,0,0,0,178.6221,478.9248Zm-1.1075,7.0869a1.55122,1.55122,0,0,1-.583.7061,1.47466,1.47466,0,0,1-.8027.2295,1.445,1.445,0,0,1-.8115-.2491,1.61823,1.61823,0,0,1-.582-.7158,3.01652,3.01652,0,0,1-.211-1.165,2.98229,2.98229,0,0,1,.2012-1.1367,1.67891,1.67891,0,0,1,.5635-.7442,1.3775,1.3775,0,0,1,.8213-.2676,1.42661,1.42661,0,0,1,.8212.2569,1.75376,1.75376,0,0,1,.583.7363,2.6897,2.6897,0,0,1,.2188,1.1553A2.78864,2.78864,0,0,1,177.5146,486.0117Z" transform="translate(-1.69469 -19.38498)" fill="#fff"/><path d="M186.2529,485.0566a.84542.84542,0,0,0,.3623-.8222,2.84757,2.84757,0,0,0-.3535-1.336,2.66716,2.66716,0,0,0-1.0605-1.0791,3.2423,3.2423,0,0,0-1.6807-.4111,3.71331,3.71331,0,0,0-1.374.2383,2.88331,2.88331,0,0,0-1.0508.6973,3.055,3.055,0,0,0-.6396,1.0976,4.01487,4.01487,0,0,0-.2295,1.376,3.45932,3.45932,0,0,0,.8974,2.5019,3.38085,3.38085,0,0,0,2.5215.9268,3.87011,3.87011,0,0,0,1.251-.1914,3.18166,3.18166,0,0,0,.8984-.458,2.37583,2.37583,0,0,0,.544-.583,1.1503,1.1503,0,0,0,.1718-.5342.51293.51293,0,0,0-.1523-.4014.6232.6232,0,0,0-.4209-.1435.53948.53948,0,0,0-.3721.1152c-.2109.1904-.3828.3535-.5068.4678a4.62676,4.62676,0,0,1-.4297.3242,2.00541,2.00541,0,0,1-.4873.2197,1.88389,1.88389,0,0,1-.5439.0674,1.60371,1.60371,0,0,1-.8213-.2197,1.5693,1.5693,0,0,1-.6026-.6592,2.13326,2.13326,0,0,1-.2285-1.0029h3.2861A2.29153,2.29153,0,0,0,186.2529,485.0566Zm-4.3076-.7646a2.21346,2.21346,0,0,1,.4873-1.2891,1.34451,1.34451,0,0,1,1.0313-.4297,1.38074,1.38074,0,0,1,1.0605.4297,2.10243,2.10243,0,0,1,.4678,1.2891Z" transform="translate(-1.69469 -19.38498)" fill="#fff"/><path d="M191.8682,484.6074a5.09041,5.09041,0,0,0-1.2705-.459c-.4395-.1045-.7832-.2002-1.0313-.2675a1.817,1.817,0,0,1-.6016-.2862.52226.52226,0,0,1-.2197-.4297.57665.57665,0,0,1,.2959-.4873,1.46125,1.46125,0,0,1,.7637-.1904,1.33313,1.33313,0,0,1,.6982.1523,1.47713,1.47713,0,0,1,.4483.3917,3.11746,3.11746,0,0,0,.4111.4394.69535.69535,0,0,0,.4385.1533.7627.7627,0,0,0,.5537-.1914.59657.59657,0,0,0,.1914-.4687.94166.94166,0,0,0-.1816-.543,1.77629,1.77629,0,0,0-.5245-.5068,2.91425,2.91425,0,0,0-.8691-.3623,4.82148,4.82148,0,0,0-1.166-.1338,3.39211,3.39211,0,0,0-1.4229.2666,2.10863,2.10863,0,0,0-.8877.7168,1.67628,1.67628,0,0,0-.2959.955,1.43314,1.43314,0,0,0,.3243.9551,2.29316,2.29316,0,0,0,.8691.6211,9.61623,9.61623,0,0,0,1.4131.4483,4.187,4.187,0,0,1,1.0986.3916.68443.68443,0,0,1,.334.6396.62756.62756,0,0,1-.3154.5156,1.41328,1.41328,0,0,1-.8301.2295,1.91745,1.91745,0,0,1-.9834-.2197,1.9573,1.9573,0,0,1-.6211-.6777,1.2221,1.2221,0,0,0-.2676-.3633.5779.5779,0,0,0-.4013-.124.68561.68561,0,0,0-.4961.1914.65477.65477,0,0,0-.2002.4775,1.42881,1.42881,0,0,0,.3047.8311,2.38776,2.38776,0,0,0,.955.6963,3.9654,3.9654,0,0,0,1.5479.2773,4.42009,4.42009,0,0,0,1.6045-.2578,1.942,1.942,0,0,0,1.3369-1.9385,1.36532,1.36532,0,0,0-.249-.8223A2.0733,2.0733,0,0,0,191.8682,484.6074Z" transform="translate(-1.69469 -19.38498)" fill="#fff"/><path d="M194.5889,478.9922a.82017.82017,0,0,0-.5918.2392.73866.73866,0,0,0-.2569.5811.76945.76945,0,0,0,.2491.6123.90269.90269,0,0,0,.5996.21.84886.84886,0,0,0,.584-.21.80062.80062,0,0,0,.248-.6123.74529.74529,0,0,0-.2578-.6104A.88236.88236,0,0,0,194.5889,478.9922Z" transform="translate(-1.69469 -19.38498)" fill="#fff"/><path d="M194.5713,481.418a.7633.7633,0,0,0-.6016.2578,1.05067,1.05067,0,0,0-.2295.7451v4.8027a1.12852,1.12852,0,0,0,.2295.7549.77113.77113,0,0,0,.6016.2676.80088.80088,0,0,0,.6113-.2578,1.08184,1.08184,0,0,0,.2383-.7647V482.373a.95077.95077,0,0,0-.2383-.6972A.80088.80088,0,0,0,194.5713,481.418Z" transform="translate(-1.69469 -19.38498)" fill="#fff"/><path d="M201.96189,481.418a.73932.73932,0,0,0-.5527.2392.9857.9857,0,0,0-.211.6778v.2285a2.925,2.925,0,0,0-.9746-.8594,2.60387,2.60387,0,0,0-1.2324-.2764,2.75857,2.75857,0,0,0-1.09759.2188,2.32957,2.32957,0,0,0-.877.6308,2.85417,2.85417,0,0,0-.584,1.0215,4.118,4.118,0,0,0-.209,1.3653,4.35939,4.35939,0,0,0,.3418,1.7861,2.706,2.706,0,0,0,.9649,1.2031,2.47561,2.47561,0,0,0,1.47259.4395,2.441,2.441,0,0,0,1.211-.2862,2.88656,2.88656,0,0,0,.8886-.8212c-.0097.5439-.01949.9453-.039,1.1933a1.83274,1.83274,0,0,1-.1621.6973,1.03283,1.03283,0,0,1-.5059.5068,2.22989,2.22989,0,0,1-1.0117.1807,2.50023,2.50023,0,0,1-.5625-.0567,1.12038,1.12038,0,0,1-.4219-.1816,1.589,1.589,0,0,1-.3242-.2861c-.0957-.1153-.18949-.2295-.27729-.334a.81409.81409,0,0,0-.6485-.3252.72175.72175,0,0,0-.498.1904.65414.65414,0,0,0-.209.5068,1.15573,1.15573,0,0,0,.3633.7833,2.74748,2.74748,0,0,0,1.0488.6308,4.64946,4.64946,0,0,0,1.55859.2383,5.30515,5.30515,0,0,0,1.5762-.1914,2.25912,2.25912,0,0,0,1.0293-.583,2.1858,2.1858,0,0,0,.5742-.9932,5.29217,5.29217,0,0,0,.1816-1.4414v-4.8701a2.09878,2.09878,0,0,0-.1621-.918A.65929.65929,0,0,0,201.96189,481.418Zm-1.0605,4.5263a1.57673,1.57673,0,0,1-.6016.669,1.49826,1.49826,0,0,1-.793.2285,1.43733,1.43733,0,0,1-1.1543-.5244,2.30738,2.30738,0,0,1-.43939-1.5381,2.45214,2.45214,0,0,1,.42969-1.5566,1.40165,1.40165,0,0,1,1.15621-.5538,1.43435,1.43435,0,0,1,1.18359.5723,2.50342,2.50342,0,0,1,.459,1.6055A2.39914,2.39914,0,0,1,200.90139,485.9443Z" transform="translate(-1.69469 -19.38498)" fill="#fff"/><path d="M209.585,482.5254a1.88007,1.88007,0,0,0-.78521-.8213,2.407,2.407,0,0,0-1.1836-.2861,2.59487,2.59487,0,0,0-1.2129.2773,2.13167,2.13167,0,0,0-.27729.1709,3.33928,3.33928,0,0,0-.68751.6875v-.2099a1.13881,1.13881,0,0,0-.10549-.5059.78552.78552,0,0,0-.28511-.3154.84588.84588,0,0,0-.4024-.1045.7161.7161,0,0,0-.5723.2392,1.00939,1.00939,0,0,0-.2109.7158v4.8506a1.08681,1.08681,0,0,0,.2402.7549.7643.7643,0,0,0,.5899.2676.79362.79362,0,0,0,.6133-.2578,1.08182,1.08182,0,0,0,.2382-.7647V485.123a5.09322,5.09322,0,0,1,.12311-1.4042,1.571,1.571,0,0,1,.53509-.7344,1.357,1.357,0,0,1,.8223-.2686.93117.93117,0,0,1,.916.4395,2.82753,2.82753,0,0,1,.2305,1.2705v2.7978a1.13543,1.13543,0,0,0,.2383.7549.77688.77688,0,0,0,.6113.2676.75952.75952,0,0,0,.5918-.2578,1.08184,1.08184,0,0,0,.2383-.7647v-3.122a5.63614,5.63614,0,0,0-.05859-.917A1.971,1.971,0,0,0,209.585,482.5254Z" transform="translate(-1.69469 -19.38498)" fill="#fff"/><path d="M216.67089,485.0566a.845.845,0,0,0,.3613-.8222,2.727,2.727,0,0,0-.3535-1.336,2.69721,2.69721,0,0,0-1.0508-1.0791,3.24811,3.24811,0,0,0-1.6894-.4111,3.715,3.715,0,0,0-1.375.2383,2.86015,2.86015,0,0,0-1.041.6973,2.96772,2.96772,0,0,0-.6504,1.0976,4.26464,4.26464,0,0,0-.2188,1.376,3.41906,3.41906,0,0,0,.8985,2.5019,3.34238,3.34238,0,0,0,2.5117.9268,3.87261,3.87261,0,0,0,1.25-.1914c.0097,0,.0293-.0098.0371-.0098a3.47845,3.47845,0,0,0,.8691-.4482,2.29911,2.29911,0,0,0,.5371-.583,1.1859,1.1859,0,0,0,.1797-.5342.51528.51528,0,0,0-.1621-.4014.60188.60188,0,0,0-.4199-.1435.51532.51532,0,0,0-.3633.1152c-.209.1904-.3808.3535-.5156.4678a4.764,4.764,0,0,1-.4297.3242,1.949,1.949,0,0,1-.4785.2197,1.7941,1.7941,0,0,1-.5235.0674h-.0293a1.63368,1.63368,0,0,1-.8222-.2197,1.49434,1.49434,0,0,1-.5918-.6592,1.20711,1.20711,0,0,1-.0762-.1621v-.0098a2.33983,2.33983,0,0,1-.1621-.831h3.2852A2.27472,2.27472,0,0,0,216.67089,485.0566Zm-4.3086-.7646a2.1358,2.1358,0,0,1,.4981-1.2891,1.3333,1.3333,0,0,1,1.0214-.4297,1.37922,1.37922,0,0,1,1.0586.4297,1.9905,1.9905,0,0,1,.4688,1.2891Z" transform="translate(-1.69469 -19.38498)" fill="#fff"/><path d="M223.28809,478.9248a.70653.70653,0,0,0-.5918.2578,1.30366,1.30366,0,0,0-.2109.7832v2.4824a3.492,3.492,0,0,0-.9629-.7724,2.79,2.79,0,0,0-1.2246-.2481,2.56624,2.56624,0,0,0-2.0235.878,3.60466,3.60466,0,0,0-.77339,2.455,4.582,4.582,0,0,0,.20109,1.3838,3.21964,3.21964,0,0,0,.5625,1.1172,2.603,2.603,0,0,0,.8887.7266,2.46492,2.46492,0,0,0,1.1172.2578,2.63043,2.63043,0,0,0,.8399-.1338,2.2973,2.2973,0,0,0,.7167-.3623,4.008,4.008,0,0,0,.6583-.6309v.1622a1.043,1.043,0,0,0,.2304.7167.78246.78246,0,0,0,1.1348.0088,1.00983,1.00983,0,0,0,.2305-.7255v-7.4014a1.09546,1.09546,0,0,0-.211-.7158A.71591.71591,0,0,0,223.28809,478.9248Zm-1.1074,7.0869a1.61043,1.61043,0,0,1-.584.7061,1.5061,1.5061,0,0,1-.8106.2295,1.43818,1.43818,0,0,1-.8027-.2491,1.6189,1.6189,0,0,1-.582-.7158,2.82812,2.82812,0,0,1-.211-1.165,2.96324,2.96324,0,0,1,.2012-1.1367,1.61008,1.61008,0,0,1,.5625-.7442,1.40514,1.40514,0,0,1,1.6348-.0107,1.78,1.78,0,0,1,.5918.7363,2.846,2.846,0,0,1,.2187,1.1553A2.94646,2.94646,0,0,1,222.18069,486.0117Z" transform="translate(-1.69469 -19.38498)" fill="#fff"/><path d="M233.97359,482.9746a2.61281,2.61281,0,0,0-.97259-1.1465,2.672,2.672,0,0,0-1.47071-.4004,2.57223,2.57223,0,0,0-1.2129.2676,3.57064,3.57064,0,0,0-.9649.7529v-2.5683a1.08764,1.08764,0,0,0-.2109-.707.73539.73539,0,0,0-.60159-.2481.70638.70638,0,0,0-.57221.2578,1.24228,1.24228,0,0,0-.2012.7735v7.3252a1.04607,1.04607,0,0,0,.2109.7167.70841.70841,0,0,0,.56251.2481.76078.76078,0,0,0,.58209-.2481,1.00232,1.00232,0,0,0,.2304-.7167v-.1622c.1817.21.334.3721.43951.4776a3.20489,3.20489,0,0,0,.41009.3154,2.22232,2.22232,0,0,0,.5821.2383,2.95963,2.95963,0,0,0,.7265.0957,2.643,2.643,0,0,0,1.1661-.2578,2.52437,2.52437,0,0,0,.8867-.7266,3.161,3.161,0,0,0,.5644-1.0976,4.69073,4.69073,0,0,0,.1914-1.4034A4.2633,4.2633,0,0,0,233.97359,482.9746Zm-1.7949,3.419a1.36427,1.36427,0,0,1-1.0879.5537,1.49735,1.49735,0,0,1-1.2031-.544,2.28731,2.28731,0,0,1-.459-1.5381,2.909,2.909,0,0,1,.2207-1.1748,1.68716,1.68716,0,0,1,.582-.7539,1.492,1.492,0,0,1,.8594-.2676,1.32283,1.32283,0,0,1,.8106.2676,1.58874,1.58874,0,0,1,.5449.7344,3.18465,3.18465,0,0,1,.1914,1.1465A2.38168,2.38168,0,0,1,232.17869,486.3936Z" transform="translate(-1.69469 -19.38498)" fill="#fff"/><path d="M240.19239,481.5225a.73443.73443,0,0,0-.3633-.1045.7088.7088,0,0,0-.4102.0947.84976.84976,0,0,0-.2773.3535,6.73442,6.73442,0,0,0-.2871.7354l-1.3457,3.8398-1.4219-4.1357a2.1935,2.1935,0,0,0-.3262-.6592.65868.65868,0,0,0-.5449-.2285.75058.75058,0,0,0-.4004.1142.69289.69289,0,0,0-.3047.2959.68559.68559,0,0,0-.1152.3916,2.02942,2.02942,0,0,0,.1914.6592l2.0625,5.1953-.1523.3819a4.21788,4.21788,0,0,1-.3067.621.7212.7212,0,0,1-.2968.295.94079.94079,0,0,1-.4493.0869,1.02759,1.02759,0,0,1-.2754-.0381,1.264,1.264,0,0,0-.2675-.0381.7419.7419,0,0,0-.5157.1621.53357.53357,0,0,0-.1816.4395.59492.59492,0,0,0,.373.5918,2.98415,2.98415,0,0,0,1.1075.1533,2.61845,2.61845,0,0,0,1.1933-.2295,1.70673,1.70673,0,0,0,.7168-.6592,6.03972,6.03972,0,0,0,.5528-1.1845l2.1972-5.7305c.0489-.1514.0957-.2949.1348-.4385.0371-.1435.0566-.2578.0762-.334a.72236.72236,0,0,0-.3633-.6308Z" transform="translate(-1.69469 -19.38498)" fill="#fff"/><path d="M263.01559,480.3975a.593.593,0,0,1,.586-.2686,3.12449,3.12449,0,0,1,.4023.0361,2.48754,2.48754,0,0,0,.3418.0391.47692.47692,0,0,0,.36131-.166.56457.56457,0,0,0,.15629-.3985c0-.4833-.48829-.7207-1.4727-.7207a3.28533,3.28533,0,0,0-1.3047.211,1.27029,1.27029,0,0,0-.6777.6767,3.24481,3.24481,0,0,0-.1973,1.253v.5039h-.4004c-.56249,0-.8437.1992-.8437.6035a.53692.53692,0,0,0,.2031.4385.86559.86559,0,0,0,.57811.1699h.46289v4.4463a1.08632,1.08632,0,0,0,.2344.7568.82232.82232,0,0,0,1.2051,0,1.07806,1.07806,0,0,0,.2383-.7568v-4.4463h.4101a1.79268,1.79268,0,0,0,.70321-.1113c.17379-.0733.25579-.2491.25579-.5205,0-.3877-.3183-.5801-.959-.5801h-.4101v-.3994A1.88016,1.88016,0,0,1,263.01559,480.3975Z" transform="translate(-1.69469 -19.38498)" fill="#fff"/><path d="M269.23439,482.3818a.795.795,0,0,0-.4981-.7031,2.16154,2.16154,0,0,0-1.02729-.2637,1.29058,1.29058,0,0,0-.84771.2637,2.94357,2.94357,0,0,0-.61329.7832,1.49407,1.49407,0,0,0-.205-.7832.68458.68458,0,0,0-.60351-.2637q-.8175,0-.81649,1.1329v4.6738a1.10751,1.10751,0,0,0,.23249.7597.75937.75937,0,0,0,.5996.2598.7912.7912,0,0,0,.6074-.2558,1.09252,1.09252,0,0,0,.2422-.7637v-1.4024c0-.5039.0137-.9316.0469-1.2822a4.21278,4.21278,0,0,1,.1757-.9092,1.25448,1.25448,0,0,1,.3653-.5742.92062.92062,0,0,1,.6035-.1933,2.14862,2.14862,0,0,1,.6211.1123,2.17216,2.17216,0,0,0,.4492.1162.64869.64869,0,0,0,.457-.2012A.67029.67029,0,0,0,269.23439,482.3818Z" transform="translate(-1.69469 -19.38498)" fill="#fff"/><path d="M275.03909,485.0566a.8558.8558,0,0,0,.3632-.8222,2.81149,2.81149,0,0,0-.3535-1.3457,2.66809,2.66809,0,0,0-1.05079-1.0694,3.25264,3.25264,0,0,0-1.68941-.4111,3.71537,3.71537,0,0,0-1.375.2383,2.743,2.743,0,0,0-1.041.6973,2.97708,2.97708,0,0,0-.6504,1.0888,4.10026,4.10026,0,0,0-.2188,1.3848,3.41126,3.41126,0,0,0,.8985,2.5019,3.33273,3.33273,0,0,0,2.5097.917,3.88561,3.88561,0,0,0,1.252-.1816,3.22062,3.22062,0,0,0,.9062-.458,2.19539,2.19539,0,0,0,.545-.5918,1.08154,1.08154,0,0,0,.1718-.5254.51524.51524,0,0,0-.1621-.4014.60513.60513,0,0,0-.4199-.1435.52875.52875,0,0,0-.3633.1152c-.209.1904-.3808.3535-.5156.458a2.36618,2.36618,0,0,1-.42969.3252,1.43351,1.43351,0,0,1-.47651.2188,1.70256,1.70256,0,0,1-.5547.0771,1.63377,1.63377,0,0,1-.8223-.2197,1.69464,1.69464,0,0,1-.6016-.6592,2.40906,2.40906,0,0,1-.2285-1.0117h3.2852A2.27314,2.27314,0,0,0,275.03909,485.0566Zm-4.3067-.7734a2.13918,2.13918,0,0,1,.4961-1.2803,1.33933,1.33933,0,0,1,1.02151-.4297,1.39923,1.39923,0,0,1,1.07029.4297,1.99213,1.99213,0,0,1,.459,1.2803Z" transform="translate(-1.69469 -19.38498)" fill="#fff"/><path d="M282.02149,485.0566a.85565.85565,0,0,0,.3633-.8222,2.81262,2.81262,0,0,0-.3535-1.3457,2.694,2.694,0,0,0-1.0508-1.0694,3.28484,3.28484,0,0,0-1.6914-.4111,3.715,3.715,0,0,0-1.375.2383,2.67021,2.67021,0,0,0-1.04109.6973,2.97271,2.97271,0,0,0-.64841,1.0888,4.05635,4.05635,0,0,0-.2305,1.3848,3.42472,3.42472,0,0,0,.9082,2.5019,3.33774,3.33774,0,0,0,2.5118.917,3.88142,3.88142,0,0,0,1.25-.1816,3.26452,3.26452,0,0,0,.9082-.458,2.05833,2.05833,0,0,0,.5351-.5918,1.00441,1.00441,0,0,0,.1719-.5254.51066.51066,0,0,0-.15429-.4014.6019.6019,0,0,0-.41991-.1435.5264.5264,0,0,0-.3613.1152c-.211.1904-.3829.3535-.5157.458a2.3799,2.3799,0,0,1-.4316.3252,1.396,1.396,0,0,1-.4863.2188,1.59994,1.59994,0,0,1-.545.0771,1.63219,1.63219,0,0,1-.8203-.2197,1.59,1.59,0,0,1-.5918-.6592,2.24575,2.24575,0,0,1-.2383-1.0117H280.998A2.28234,2.28234,0,0,0,282.02149,485.0566Zm-4.3067-.7734a2.17352,2.17352,0,0,1,.4864-1.2803,1.3722,1.3722,0,0,1,1.0312-.4297,1.4097,1.4097,0,0,1,1.0684.4297,1.98118,1.98118,0,0,1,.459,1.2803Z" transform="translate(-1.69469 -19.38498)" fill="#fff"/><path d="M289.27929,482.9932a2.86637,2.86637,0,0,0-1.03129-1.1651,2.70616,2.70616,0,0,0-1.43351-.4004,2.37031,2.37031,0,0,0-1.14649.2764,3.28364,3.28364,0,0,0-.99221.8594v-.2012a.97938.97938,0,0,0-.21879-.7051.7573.7573,0,0,0-.584-.2392.744.744,0,0,0-.57221.2285,1.05723,1.05723,0,0,0-.211.7265v7.2383a1.96442,1.96442,0,0,0,.1524.8408.67007.67007,0,0,0,.63081.2774c.53519,0,.80279-.3731.80279-1.1084v-2.5107a4.10424,4.10424,0,0,0,.5254.5429,2.90171,2.90171,0,0,0,.4101.2969,2.33487,2.33487,0,0,0,1.2032.2861,2.69845,2.69845,0,0,0,1.1171-.2295,2.76127,2.76127,0,0,0,.9082-.6777,3.48289,3.48289,0,0,0,.6016-1.0889,4.51167,4.51167,0,0,0,.2109-1.4228,1.384,1.384,0,0,0-.0097-.2002A4.08985,4.08985,0,0,0,289.27929,482.9932Zm-1.4902,2.8652a.65929.65929,0,0,1-.03709.1143,1.59508,1.59508,0,0,1-.57431.7255,1.32483,1.32483,0,0,1-.7734.2491.42912.42912,0,0,1-.1621-.0196,1.43894,1.43894,0,0,1-1.0137-.5439,2.31968,2.31968,0,0,1-.4668-1.5567,2.37083,2.37083,0,0,1,.4785-1.6142,1.48612,1.48612,0,0,1,1.1641-.544,1.34886,1.34886,0,0,1,.80271.2569,1.63619,1.63619,0,0,1,.55279.7363,3.17513,3.17513,0,0,1,.0293,2.1963Z" transform="translate(-1.69469 -19.38498)" fill="#fff"/><path d="M291.32229,481.418a.74854.74854,0,0,0-.5918.248,1.1,1.1,0,0,0-.2383.7549v4.8027a1.13543,1.13543,0,0,0,.2383.7549.8306.8306,0,0,0,1.2031,0,1.05444,1.05444,0,0,0,.2402-.7549V482.373a.97778.97778,0,0,0-.2402-.707A.787.787,0,0,0,291.32229,481.418Z" transform="translate(-1.69469 -19.38498)" fill="#fff"/><path d="M291.34179,478.9922a.87.87,0,0,0-.59179.2285.761.761,0,0,0-.25781.5918.73768.73768,0,0,0,.25781.6016.87283.87283,0,0,0,.59179.2207.88733.88733,0,0,0,.5918-.2207.87181.87181,0,0,0-.0098-1.212A.87016.87016,0,0,0,291.34179,478.9922Z" transform="translate(-1.69469 -19.38498)" fill="#fff"/><path d="M298.94729,486.625l-1.7207-2.708.8906-.8164c.4551-.4092.6836-.7393.6836-.9854a.681.681,0,0,0-.207-.5.75031.75031,0,0,0-.5293-.2002.72909.72909,0,0,0-.4454.1358,4.53726,4.53726,0,0,0-.53509.5029l-1.88671,1.9824v-4.0732a1.16553,1.16553,0,0,0-.2285-.7774.76874.76874,0,0,0-.6153-.2666.71832.71832,0,0,0-.6172.292,1.44639,1.44639,0,0,0-.2148.8496v7.1612a1.13806,1.13806,0,0,0,.2226.7597.75262.75262,0,0,0,.6094.2598.786.786,0,0,0,.586-.2627,1.01228,1.01228,0,0,0,.2578-.7441v-1.3369l.9101-.8594,1.4785,2.4365a4.21522,4.21522,0,0,0,.4512.6006.62984.62984,0,0,0,.4746.166.75685.75685,0,0,0,.5742-.2295.87956.87956,0,0,0,.2207-.6318.65361.65361,0,0,0-.0839-.2979C299.166,486.9766,299.07229,486.8281,298.94729,486.625Z" transform="translate(-1.69469 -19.38498)" fill="#fff"/><path d="M301.21879,486.3906a.93843.93843,0,0,0-.6407,1.6045.95519.95519,0,0,0,.6563.2461.92911.92911,0,0,0,.6445-.25.94988.94988,0,0,0,0-1.334A.924.924,0,0,0,301.21879,486.3906Z" transform="translate(-1.69469 -19.38498)" fill="#fff"/><path d="M308.86719,485.4307a.62767.62767,0,0,0-.4356.1621,1.63452,1.63452,0,0,0-.33.4414,2.00072,2.00072,0,0,1-.6387.7138,1.552,1.552,0,0,1-.8652.2334,1.5916,1.5916,0,0,1-.6875-.1455,1.477,1.477,0,0,1-.53519-.4238,1.93609,1.93609,0,0,1-.33791-.6758,3.13718,3.13718,0,0,1-.1172-.872,2.51766,2.51766,0,0,1,.45511-1.5889,1.45256,1.45256,0,0,1,1.19919-.5811,1.437,1.437,0,0,1,.8496.2344,2.48507,2.48507,0,0,1,.6446.6992,1.60638,1.60638,0,0,0,.3105.3506.56472.56472,0,0,0,.3496.1074.77827.77827,0,0,0,.543-.2099.67539.67539,0,0,0,.2226-.5098,1.282,1.282,0,0,0-.1992-.6387,2.43968,2.43968,0,0,0-.5761-.6416,3.10483,3.10483,0,0,0-.9219-.4912,3.93429,3.93429,0,0,0-3.0078.2422,2.85306,2.85306,0,0,0-1.1524,1.2256,3.97085,3.97085,0,0,0-.4004,1.8281,3.37315,3.37315,0,0,0,.8711,2.4336,3.22457,3.22457,0,0,0,2.4317.9072,4.118,4.118,0,0,0,1.3144-.1992,2.915,2.915,0,0,0,.9668-.5195,2.26556,2.26556,0,0,0,.5742-.6797,1.44905,1.44905,0,0,0,.18751-.6699.75005.75005,0,0,0-.205-.4981A.64794.64794,0,0,0,308.86719,485.4307Z" transform="translate(-1.69469 -19.38498)" fill="#fff"/><path d="M315.92379,482.3623a2.9914,2.9914,0,0,0-1.0605-.6963,3.58645,3.58645,0,0,0-1.3848-.248,3.68422,3.68422,0,0,0-1.375.2392,2.9793,2.9793,0,0,0-1.06049.6963,3.05245,3.05245,0,0,0-.668,1.0791,4.0846,4.0846,0,0,0-.22851,1.3945,4.27821,4.27821,0,0,0,.2187,1.3848,3.12544,3.12544,0,0,0,.6875,1.0791,2.9655,2.9655,0,0,0,1.0508.707,3.64743,3.64743,0,0,0,1.375.2481,3.79584,3.79584,0,0,0,1.3848-.2481,2.98563,2.98563,0,0,0,1.7285-1.7861,4.27776,4.27776,0,0,0,0-2.7705A3.05914,3.05914,0,0,0,315.92379,482.3623Zm-1.2304,4.0498a1.45794,1.45794,0,0,1-1.2149.583,1.49588,1.49588,0,0,1-.8789-.2578,1.70282,1.70282,0,0,1-.5723-.7646,3.015,3.015,0,0,1-.1992-1.1456,3.15176,3.15176,0,0,1,.1992-1.165,1.61956,1.61956,0,0,1,.5821-.7549,1.554,1.554,0,0,1,.8691-.248,1.476,1.476,0,0,1,1.2149.5732,2.55891,2.55891,0,0,1,.4472,1.5947A2.53023,2.53023,0,0,1,314.69339,486.4121Z" transform="translate(-1.69469 -19.38498)" fill="#fff"/><path d="M326.94339,482.4717a1.7379,1.7379,0,0,0-.7422-.7735,2.47982,2.47982,0,0,0-1.1875-.2705,2.31083,2.31083,0,0,0-1.0762.25,2.95973,2.95973,0,0,0-.9121.7637,2.00845,2.00845,0,0,0-.752-.7627,2.21963,2.21963,0,0,0-1.0859-.251,2.405,2.405,0,0,0-1.1074.25,2.9529,2.9529,0,0,0-.9356.7637v-.1592a.866.866,0,0,0-.22849-.6367.80014.80014,0,0,0-.57811-.2305.73762.73762,0,0,0-.5762.2471,1.05336,1.05336,0,0,0-.2168.7197v4.8018a1.14765,1.14765,0,0,0,.2442.792.86591.86591,0,0,0,1.25,0,1.18669,1.18669,0,0,0,.2343-.792V484.917a3.96364,3.96364,0,0,1,.2637-1.6221,1.0616,1.0616,0,0,1,1.084-.5703.74123.74123,0,0,1,.6035.2275,1.08581,1.08581,0,0,1,.23441.5713,9.07709,9.07709,0,0,1,.041.9864v2.6738a1.15338,1.15338,0,0,0,.24019.7949.77838.77838,0,0,0,.6153.2637.81534.81534,0,0,0,.6328-.2637,1.14349,1.14349,0,0,0,.2402-.7949v-2.2305a4.26973,4.26973,0,0,1,.1836-1.5039,1.35261,1.35261,0,0,1,.4668-.5263,1.13842,1.13842,0,0,1,.6289-.1983.80365.80365,0,0,1,.61721.2217,1.01061,1.01061,0,0,1,.248.5488,6.71077,6.71077,0,0,1,.045.8653v2.8232a1.13784,1.13784,0,0,0,.24409.792.80517.80517,0,0,0,.6231.2666.81927.81927,0,0,0,.6347-.2637,1.16265,1.16265,0,0,0,.2364-.7949v-3.2764A3.59626,3.59626,0,0,0,326.94339,482.4717Z" transform="translate(-1.69469 -19.38498)" fill="#fff"/><path d="M248.73539,478.4639a8.2307,8.2307,0,0,1,1.6992-.3965,11.05784,11.05784,0,0,1,1.165-.0752,4.63228,4.63228,0,0,1,.8379.0723l.0781-.4932a5.13957,5.13957,0,0,0-1.7529-.1524l-.0781-.2685a.6836.6836,0,1,0-.2852,0l.086.2988a6.95286,6.95286,0,0,0-1.8985.5586Z" transform="translate(-1.69469 -19.38498)" fill="#fff"/><path d="M245.73539,480.4844c.0234-.0323.0488-.0625.0722-.0928l-.2012-.1455-.31639-.2305a4.65606,4.65606,0,0,0-.90821,1.3252.58523.58523,0,0,0-.0566-.0781.62026.62026,0,0,0-.49019-.1885h-.00981a.39271.39271,0,0,1-.2754-.0967.434.434,0,1,0-.34179.1661.54176.54176,0,0,0,.10739-.0127.66644.66644,0,0,0,.5235.2158.35635.35635,0,0,1,.2832.1006.47144.47144,0,0,1,.1035.2763l-.002.003a4.67459,4.67459,0,0,0-.2011,1.7285l.6836.0263a5.17827,5.17827,0,0,1,.2402-1.4433,6.7883,6.7883,0,0,1,.7851-1.5488Z" transform="translate(-1.69469 -19.38498)" fill="#fff"/><path d="M257.55269,478.5645a.43133.43133,0,0,0-.4316.4326.49188.49188,0,0,0,.0137.1074.66956.66956,0,0,0-.21679.5234.3493.3493,0,0,1-.10161.2832.44826.44826,0,0,1-.18939.0909,5.28152,5.28152,0,0,0-1.13681-1.1485l-.49219.5254a7.75438,7.75438,0,0,1,1.11919,1.2881,9.1744,9.1744,0,0,1,.7363,1.3047l.6621-.3145a10.11419,10.11419,0,0,0-.7285-1.4189.69082.69082,0,0,0,.21491-.124.61486.61486,0,0,0,.18749-.4903.41117.41117,0,0,1,.0976-.2871.42889.42889,0,0,0,.2656.0938.4331.4331,0,1,0,0-.8662Z" transform="translate(-1.69469 -19.38498)" fill="#fff"/><path d="M255.834,484.5195a14.70436,14.70436,0,0,1-4.38871,1.3076,16.18814,16.18814,0,0,1-2.2178.1475,18.37813,18.37813,0,0,1-2.3066-.1445c-.6973-.0869-1.2422-.1944-1.5742-.2705h-.002a5.95272,5.95272,0,0,0,.2949.75l.0079.0175c.0156.0284.0293.0586.0429.087.0157.0283.0274.0556.043.082l.0117.0215a4.81525,4.81525,0,0,0,.6992,1.0029,3.64637,3.64637,0,0,0,1.88871,1.1816l.01559.002.0137.0039a7.46714,7.46714,0,0,0,2.1309.2754,9.32832,9.32832,0,0,0,3.6709-.7549,5.9948,5.9948,0,0,0,2.1054-1.7285,4.80178,4.80178,0,0,0,.6797-1.4844,3.85805,3.85805,0,0,0,.0957-1.1806A10.3259,10.3259,0,0,1,255.834,484.5195Z" transform="translate(-1.69469 -19.38498)" fill="#fff"/><path d="M251.36519,485.2861a14.15843,14.15843,0,0,0,4.211-1.2519,8.51964,8.51964,0,0,0,1.375-.8018,9.0418,9.0418,0,0,0-1.1367-2.3594,5.293,5.293,0,0,0-3.4082-2.4453,4.43119,4.43119,0,0,0-.8028-.0664c-.2969,0-.6494.0196-1.1357.0664a7.624,7.624,0,0,0-1.63279.3916,6.21881,6.21881,0,0,0-2.28321,1.3184l-.0176.0195a4.50895,4.50895,0,0,0-.5078.5449,6.25556,6.25556,0,0,0-.73439,1.46,5.35541,5.35541,0,0,0-.22851,1.5947c0,.2207.01951.4395.0371.6592v.0098a.20655.20655,0,0,1,.0098.0762c.0175.1533.0488.3066.0761.4589A17.48877,17.48877,0,0,0,251.36519,485.2861Zm2.5977-5.0146a1.13186,1.13186,0,1,1-1.127,1.1269A1.12981,1.12981,0,0,1,253.96289,480.2715Zm-7.1533,1.7764a1.82421,1.82421,0,1,1,1.8242,1.8242A1.81612,1.81612,0,0,1,246.80959,482.0479Z" transform="translate(-1.69469 -19.38498)" fill="#fff"/></g></svg>